<svg id="Layer_1" data-name="Layer 1" xmlns="http://www.w3.org/2000/svg" viewBox="0 0 50 50">
    <circle fill="#141936" cx="25" cy="25" r="24.64"/>
    <path fill="#fff"
          d="M13.42,31.23a7.29,7.29,0,0,1-3.28-.64,4.43,4.43,0,0,1-1.91-1.7,4.51,4.51,0,0,1-.62-2.35A4.29,4.29,0,0,1,9.29,23a8.1,8.1,0,0,1,5.07-1.34h3.93v-.37a2.88,2.88,0,0,0-.9-2.35,3.43,3.43,0,0,0-2.25-.75,3.86,3.86,0,0,0-2.13.58,2.46,2.46,0,0,0-1.12,1.7H8a5.51,5.51,0,0,1,1.14-2.94,6.48,6.48,0,0,1,2.55-1.92,8.74,8.74,0,0,1,3.5-.67,7.66,7.66,0,0,1,5.22,1.66,5.87,5.87,0,0,1,1.91,4.69v9.53H18.89l-.38-2.5a5.73,5.73,0,0,1-1.92,2.06A5.67,5.67,0,0,1,13.42,31.23Zm.91-3.12A3.32,3.32,0,0,0,17,27a5.55,5.55,0,0,0,1.2-2.78H14.79a3.53,3.53,0,0,0-2.28.58,1.77,1.77,0,0,0-.68,1.42,1.61,1.61,0,0,0,.68,1.4A3,3,0,0,0,14.33,28.11Z"/>
    <path fill="#fff"
          d="M32.67,26.23A8.15,8.15,0,0,1,30.58,26l-1.16,1.16a5.3,5.3,0,0,0,1.44.46A26.32,26.32,0,0,0,33.8,28a8.16,8.16,0,0,1,4.5,1.47,4.09,4.09,0,0,1,1.4,3.28A4.93,4.93,0,0,1,39,35.34a5.39,5.39,0,0,1-2.31,2,9.08,9.08,0,0,1-4,.77,10.19,10.19,0,0,1-5.34-1.24,4,4,0,0,1-2-3.7,4.46,4.46,0,0,1,2-3.63A6.72,6.72,0,0,1,26.22,29a6,6,0,0,1-.8-.66v-.72l2.72-2.87a5.19,5.19,0,0,1-1.81-4.09,5.45,5.45,0,0,1,.76-2.85,5.53,5.53,0,0,1,2.17-2A7.19,7.19,0,0,1,32.67,15a7.39,7.39,0,0,1,2.44.38H41v2.43L38.33,18A5.64,5.64,0,0,1,39,20.61a5.51,5.51,0,0,1-.75,2.84,5.33,5.33,0,0,1-2.17,2A7.12,7.12,0,0,1,32.67,26.23Zm-3.75,6.53A1.87,1.87,0,0,0,30,34.5a5.6,5.6,0,0,0,2.64.58,4.48,4.48,0,0,0,2.44-.61A1.9,1.9,0,0,0,36,32.83a1.85,1.85,0,0,0-.61-1.41A4.2,4.2,0,0,0,33,30.73c-.85-.06-1.64-.16-2.37-.28a3.48,3.48,0,0,0-1.3,1.1A2.15,2.15,0,0,0,28.92,32.76Zm3.75-9.59a3.09,3.09,0,0,0,2-.66,2.29,2.29,0,0,0,.79-1.87,2.29,2.29,0,0,0-.79-1.88,3.48,3.48,0,0,0-4.08,0,2.32,2.32,0,0,0-.78,1.88,2.31,2.31,0,0,0,.78,1.87A3.09,3.09,0,0,0,32.67,23.17Z"/>
</svg>
